Coordinates
version=1
nRows=7
nColumns=40
inDegrees=yes

Units are S.I. units (second, meters, Newtons, ...)
Angles are in degrees.

endheader
time	pelvis_tilt	pelvis_list	pelvis_rotation	pelvis_tx	pelvis_ty	pelvis_tz	hip_flexion_r	hip_adduction_r	hip_rotation_r	knee_angle_r	knee_angle_r_beta	ankle_angle_r	subtalar_angle_r	mtp_angle_r	hip_flexion_l	hip_adduction_l	hip_rotation_l	knee_angle_l	knee_angle_l_beta	ankle_angle_l	subtalar_angle_l	mtp_angle_l	lumbar_extension	lumbar_bending	lumbar_rotation	arm_flex_r	arm_add_r	arm_rot_r	elbow_flex_r	pro_sup_r	wrist_flex_r	wrist_dev_r	arm_flex_l	arm_add_l	arm_rot_l	elbow_flex_l	pro_sup_l	wrist_flex_l	wrist_dev_l
     29.44000000	     -6.96974273	     -6.02718129	      0.05834799	      1.09055336	      0.91353555	      0.46022097	     27.14158106	      1.84511037	    -12.68979606	     22.09213023	     22.09213023	      4.04708756	     -3.61929935	     -0.04309271	      8.92232165	    -12.65688162	     -0.87029498	     43.20920990	     43.20920990	      9.01828815	     -9.56301283	    -19.32161183	    -11.40260334	      4.40733305	      2.11061893	    -10.35165106	    -13.00942890	     -2.74496659	     30.18148707	     46.58245889	      0.00000000	      0.00000000	     11.79026686	    -13.68953342	    -12.12330387	    109.31125340	     48.54917507	      0.00000000	      0.00000000
     29.45171429	     -6.95743889	     -6.26096027	      0.54515878	      1.09060246	      0.91465835	      0.46274070	     26.41275174	      2.14444704	    -13.13005809	     21.88154293	     21.88154293	      4.56666028	     -3.64211797	     -0.15597132	     11.21424671	    -13.06771357	      0.43597445	     47.34223702	     47.34223702	      6.41675552	    -11.01244305	    -18.76488999	    -11.50175434	      4.64252681	      2.15102041	     -9.04900822	    -12.74556329	     -2.48043395	     31.04292581	     46.53370535	      0.00000000	      0.00000000	     10.73877491	    -13.06884293	    -11.67854421	    108.62798823	     48.50612366	      0.00000000	      0.00000000
     29.46342857	     -7.05197379	     -6.37308417	      1.03871854	      1.09050571	      0.91556249	      0.46503910	     25.79713100	      2.30193419	    -13.58300270	     21.64487691	     21.64487691	      5.06243511	     -3.57468696	     -0.28038921	     13.68185523	    -13.10481812	      1.96380568	     51.33145500	     51.33145500	      3.79566069	    -12.82297376	    -17.45371834	    -11.44247868	      4.74415028	      2.03774870	     -7.83597419	    -12.61581854	     -2.08484541	     32.26175263	     46.45904720	      0.00000000	      0.00000000	      9.51911825	    -12.66886052	    -11.33049251	    107.52674868	     48.46220456	      0.00000000	      0.00000000
     29.47514286	     -6.98414662	     -6.37455757	      1.44724895	      1.09036163	      0.91652663	      0.46722930	     25.10989298	      2.33363874	    -14.00871314	     21.61201863	     21.61201863	      5.64420490	     -3.28015219	     -0.44891359	     16.10003613	    -12.95844325	      3.25529491	     55.50231267	     55.50231267	      3.26270612	    -13.05223447	    -11.40703311	    -11.60747920	      4.72785046	      2.20716475	     -7.74010399	    -13.49634984	      1.87757512	     37.13701656	     45.96287257	      0.00000000	      0.00000000	      8.66541752	    -12.16025460	    -10.80114826	    105.70989879	     48.45644200	      0.00000000	      0.00000000
     29.48685714	     -6.82359050	     -6.52830145	      1.83484131	      1.09027970	      0.91751368	      0.46958292	     24.29386375	      2.61054945	    -14.30241479	     21.49917512	     21.49917512	      6.16201802	     -3.31553613	     -0.59209345	     18.20079537	    -13.12667645	      4.19982424	     58.82974694	     58.82974694	      1.02903075	    -14.07751564	    -10.46300328	    -11.87827712	      4.82691648	      2.31225705	     -6.00316739	    -13.36963257	      1.95514843	     38.02755335	     45.93384753	      0.00000000	      0.00000000	      7.55253571	    -11.56976832	    -10.27145424	    104.58815489	     48.39726654	      0.00000000	      0.00000000
     29.49857143	     -6.86185171	     -6.45226486	      2.25520560	      1.08995879	      0.91821593	      0.47154847	     23.72096221	      2.57169855	    -14.65854152	     21.42138941	     21.42138941	      6.62391171	     -3.14682134	     -0.76116466	     20.74813501	    -12.72447364	      5.36697590	     62.39833245	     62.39833245	      1.69513724	    -14.05824828	     -2.98033359	    -11.81069564	      4.72433133	      2.50110409	     -5.47289058	    -13.99357721	      3.67148466	     41.71361853	     45.68032038	      0.00000000	      0.00000000	      6.93515879	    -11.32714240	     -9.59901793	    101.23192603	     48.33148681	      0.00000000	      0.00000000
     29.51028571	     -6.77137876	     -6.52627602	      2.66845944	      1.08968502	      0.91899366	      0.47366781	     23.01195777	      2.76836338	    -14.86730546	     21.32088478	     21.32088478	      7.08084083	     -3.30988777	     -0.85223229	     22.86070227	    -12.66782348	      6.17857212	     64.96064903	     64.96064903	      0.26656142	    -15.15045915	     -2.08852119	    -11.95017880	      4.70679333	      2.28903359	     -3.64033208	    -13.93269972	      3.60187491	     42.87664513	     45.65010663	      0.00000000	      0.00000000	      5.64414746	    -11.08719750	     -9.11205142	     99.44389725	     48.26241418	      0.00000000	      0.00000000
